<svg baseProfile="tiny" xmlns="http://www.w3.org/2000/svg" viewBox="0 0 158.34 51.26" overflow="visible" xml:space="preserve"><circle fill="#FFF" cx="25.28" cy="25.46" r="24.87"/><g fill="#00294C"><path d="M25.28 49.45c13.25 0 23.99-10.74 23.99-23.99 0-13.25-10.74-23.99-23.99-23.99-13.25 0-23.99 10.74-23.99 23.99 0 13.25 10.74 23.99 23.99 23.99zm0-44.59c11.36 0 20.6 9.24 20.6 20.6 0 11.35-9.24 20.59-20.6 20.59-11.36 0-20.6-9.24-20.6-20.59.01-11.36 9.25-20.6 20.6-20.6z"/><path d="M35.03 38.43c-.17.05-1.08.35-1.25.27-.13-.06-.39.15-.18.16.21.01 1.21-.12 1.37-.21.16-.09.23-.27.06-.22zM28.26 36.82c-.21-.01-.3-.03-.48-.05-.18-.03-.27.14-.13.2s.39.1.54.07c.16-.04.28-.21.07-.22zM27.19 35.55c.2-.05.13-.18.12-.22-.01-.05-.53-.14-.63-.18-.18-.06-.31.19-.11.25.21.06.42.2.62.15zM26.93 36.04c-.19-.03-.29.18-.14.22.16.04.55.15.63.13.08-.02.22-.2.11-.21-.2-.03-.46-.12-.6-.14zM29.36 38.42c.14-.04.22-.14.21-.18 0-.05-.12-.08-.28-.02-.15.06-.77-.02-.86-.05-.16-.04-.32.06-.22.13.09.07 1.02.16 1.15.12zM29.7 38.81c-.15.06-.77-.02-.87-.04-.16-.04-.32.06-.22.12.09.07 1.02.16 1.15.12.14-.04.22-.14.21-.18 0-.05-.12-.08-.27-.02zM36.51 23.18l-.18-.09c.02.02.05.04.07.05.03.01.07.03.11.04zM26.31 17.31z"/><path d="M25.24 44.7c10.6 0 19.23-8.63 19.23-19.23S35.84 6.24 25.24 6.24C14.63 6.23 6 14.86 6 25.46 6 36.07 14.63 44.7 25.24 44.7zM18.98 7.95c.33.06.66.12.81.15.33.06.09-.22-.11-.28-.04-.01-.12-.03-.21-.05 1.35-.44 2.77-.73 4.24-.85 0 .08-.01.17-.03.31-.06.13-1.08 1.81-1.06 1.83-.06.08-1.38 1.45-1.36 1.54l-.43.4c-.26.23-1.59 1.64-1.82 1.99-.08-.03-.22-.09-.38-.15-.72-.28-.5-.82.12-.87.09-.01.2-.04.5.02.31.06.11-.13.02-.16-.1-.03-.32-.07-.58-.1-.72-.08-.55-.49-.32-.49.23 0 .91.06 1.17.08.26.02.15-.13-.02-.19-.17-.06-.72-.1-.96-.16-.76-.19-.58-.59-.39-.55.19.04.86.1 1.07.16.22.05.21-.2-.03-.25-.24-.05-.92-.2-1.02-.23-.1-.03-.3-.4.25-.42.25-.01 1.12.15 1.37.17.26.03.22-.06.04-.17-.18-.1-1.09-.26-1.36-.35-.27-.09-.5-.36-.08-.33.42.04.83.13 1.18.18.35.05.22-.17.03-.2-.19-.04-.97-.25-1.23-.32-.27-.07-.31-.35-.15-.31.17.04 1.23.29 1.51.33.29.04.3-.14.01-.23-.22-.06-.8-.22-1.23-.33.15-.06.3-.12.45-.17zm6.26-1.1c1.16 0 2.29.12 3.39.32.04.31.08.62.07.95a57 57 0 0 1-.21 3.74c-.16-.02-.31-.03-.48-.03-.28.01-.54-.02-.79-.09-.73-.2-1.3-.21-1.71-.02l-.02.01c.03-.47.05-.96.04-1.37.03-.01.08.01.11 0 .1-.02.12.1.12.24 0 .12.01.74.03.88.02.14.15.02.13-.07-.01-.09.01-.23.01-.48 0-.25-.03-.99-.05-1.2-.02-.18 0-.43-.05-.6-.05-.17-.17-.05-.16.08.01.13-.01.31.01.52.02.18-.06.08-.19.07-.01-.15-.03-.3-.04-.45-.02-.24-.06-.47-.09-.69-.14-.76-.35-1.35-.63-1.75l-.03-.03c.19-.01.36-.03.54-.03zm18.61 18.61c0 9.12-6.6 16.71-15.26 18.3l-.48-2.31.16-.02c.51.09 1.02.07 1.53-.05 1.93.04 3.72-.28 5.19-.93 1.39-.61 2.44-1.49 3.03-2.53.47-.83.63-1.71.47-2.58-.09-.54-.31-1.08-.64-1.59l-.04-.06c-1.02-1.58-1.99-3.1-2.3-4.86-.12-.71-.01-1.48.13-2.29.09-.59.07-1.25-.04-1.91-.14-.81-.44-1.63-.84-2.31 0 0 .8.36 1.57.75-.16-.12-.39-.37-.56-.66-.07-.14-.12-.26-.15-.41-.01-.06 0-.3.02-.35.16-.44-.32-1.38-.41-1.52-.06-.09-.21-.31-.3-.5-.02-.08-.21-.7.09-1.02.12-.14.44-.35.62-.44.15-.08.2-.03.21.08-.12.09-.22.2-.29.34-.11.24-.14.53-.08.88.04.21.11.43.2.67.15.36.24.68.29.96.04.23.04.42.02.59-.02.11-.02.21 0 .3.04.22.16.39.27.56.11.17.27.41.34.55.01.02.02.03.02.05v.04c-.01 0-.05-.01-.1-.02.04.02.09.05.14.07.32.16.5-.08.38-.33-.07-.14-.2-.35-.35-.58-.16-.23-.28-.43-.24-.71.07-.41-.05-.97-.32-1.66-.44-1.07-.18-1.62.36-1.76.23-.06.26-.32.1-.46-2.5-2.23-5.38-3.08-8.04-3.02.08-.45.16-1 .23-1.61.32.02.97.03 1.39.05.21.01.42-.11.37-.22-.05-.11-.27-.6-.59-.67-.17-.04-.7-.34-1.03-.45.11-1.24.19-2.6.22-3.8.01-.27-.02-.52-.04-.77 8.4 1.77 14.75 9.26 14.75 18.21zM25.24 44.08c-.13 0-.25-.02-.38-.02-.03-.31-.03-.63-.03-.72 0-.17.3-.63.85-.54.27.04.52-.09.53-.26.01-.09-.05-.5.05-.5.45.03.25-.38.3-.54.35 0 .71-.02 1.07-.06l.1.03c.03.12.26 1.26.48 2.33-.97.18-1.96.28-2.97.28zm-11.61-4.09c0-.01.01-.02.01-.02.07-.1.11 0 .28.06.16.06.1-.12.02-.17-.07-.06-.21-.1-.3-.17-.08-.08-.09-.25.01-.18.1.07.2.07.34.14.15.06.1-.08 0-.15-.1-.07-.25-.13-.38-.24-.13-.11-.05-.28.08-.19.13.09.32.19.52.31s.14-.15 0-.19c-.14-.04-.4-.25-.51-.31-.16-.1-.29-.53.02-.5.21.02.36.16.55.25.18.08.23-.09.07-.21-.15-.13-.48-.32-.65-.42-.21-.11-.12-.46.08-.44.09.01.26.09.38.15.12.07.19-.06.09-.12-.1-.07-.28-.16-.38-.23-.1-.07-.11-.41.09-.29s.25.12.42.18c.16.06.12-.12.05-.18-.08-.05-.37-.16-.5-.25s-.08-.29.07-.2c.14.09.34.17.47.23.14.06.29-.05.19-.12-.1-.07-.24-.19-.35-.23-.6-.21-.34-2.29.73-1.48.24.18 1.18 1.32 1.48 1.27.43-.06.39 5 .38 5.11-.02.24.01.49.05.74-1.17-.62-2.29-1.33-3.31-2.15zm-1.27-10.55c-.16-.11-.33-.45-.2-.36.13.09.5.35.66.46.16.11.28 0 .04-.14-.23-.14-.62-.54-.76-.65-.13-.11-.21-.42-.08-.33.13.09.58.43.7.54.11.12.18-.03.09-.13s-.5-.45-.74-.65c-.4-.35-.28-.94-.14-.92.13.02 1.03.79 1.19.93.11.09.2-.04.05-.2-.15-.17-.98-.88-1.1-.97-.32-.25-.23-.68-.22-.71.03-.07.14-.17.21-.12.13.09.81.76.89.86.09.1.2-.04.07-.13s-.58-.56-.75-.72c-.17-.16 0-.28.15-.21.15.07.67.65.82.71.15.07.12-.06.05-.12-.08-.06-.94-.87-1.05-.97-.05-.05-.16-.13-.09-.25.1-.18.12-.33.39-.17.08.05.27.21.35.28.08.08.18-.01.09-.11s-.46-.38-.57-.47c-.11-.1-.05-.29.13-.19.18.11.64.54.7.6.06.06.3.01.12-.12-.19-.13-.94-.88-.96-.96-.05-.23-.08-1.07.04-.96.11.12.42.28.61.47.2.2.12-.09.01-.23-.09-.11-.69-.54-.98-1.04-.03-.08-.06-.15-.09-.22-.32-.78.01-1.51.67-1.8.25-.06.51-.05.71.01.17.06.26.18.25.25-.01.06-.1.11-.25.13-.37.04-.67.23-.81.52-.13.25-.12.54.01.77.13.22.26.41.45.67l.41.59c.58.86.66 2.22.54 3.12-.06.47-.14 1.11-.01 1.95.13.83.01 1.48-.35 2.03-.13.19-.28.3-.44.3-.06 0-.3-.1-.39-.2-.14-.15-.53-.67-.25-.79.1-.04-.01-.23-.17-.35zm1.83-13.5c-.1-.05-.67-.41-.85-.5-.18-.08.07-.13.17-.1s.53.16.66.21c.12.05.24-.07.16-.12-.07-.05-.16-.16-.36-.28.39-.09.62-.28.76-.65.09-.23.14-.4.24-.69.11-.34.33-.49.5-.47.19.01.34.21.39.5.2 1.11.2 2.27.21 3.4 0 .71.01 1.38.06 2.01-.34.26-.66.56-.96.91-.02 0-.1.01-.25.02-.18.01-.33-.17-.2-.19.13-.02.25-.16.13-.17-.12 0-.19-.03-.43-.08s-.22-.21-.11-.24c.11-.02.29.07.44.16.15.09.37-.14.13-.19-.24-.05-.58-.29-.87-.33-.28-.04-.37-.26-.15-.21.22.05.52.09.81.11.28.02.17-.17.03-.21-.15-.04-.67-.13-.89-.21-.22-.08-.18-.25-.02-.25s.85.24 1.04.3c.19.06.28-.14-.06-.22-.34-.08-.96-.34-1.08-.39-.12-.04-.15-.18.06-.15.22.03.8.21.92.23.12.03.17-.06-.06-.11-.24-.05-.76-.35-1-.4-.24-.05-.2-.22-.03-.18.17.04.81.25 1 .29.19.04.23-.11-.08-.17-.31-.06-.92-.37-1.14-.45-.22-.08-.18-.25.03-.19.22.05.61.31.79.3.18-.01.12-.11-.02-.13-.14-.02-.61-.31-.73-.38-.13-.07-.07-.12.02-.14.09-.02.35.15.47.17.12.02.21-.11.05-.15-.17-.04-.5-.21-.67-.25-.16-.04-.12-.18 0-.16.12.02.54.18.71.22.17.04.18-.03.01-.07-.17-.04-.8-.36-1.03-.49-.23-.12-.17-.31-.02-.25.15.07 1.07.43 1.19.48.12.05.13-.09.03-.14zm10.14-7.82c.13.1.41.29.47.35s.11.31-.02.28c-.13-.04-.45-.28-.62-.43-.18-.15-.26.12-.16.18s.57.53.73.62c.16.08.05.22.07.42-.62.68-1.05 1.45-1.3 2.34-.02.07-.02.13-.01.19.02.09.06.17.13.22.12.09.29.1.43.01.34-.2.81-.28 1.03-.16.22.12.43.02.59-.05h.01c.32-.15.8-.13 1.43.05.28.08.59.11.91.1.16 0 .31.01.46.03l.57.16c.14.06.28.14.4.24-.03.07-.06.11-.14.13-.16.05-1.29.19-1.28.19-.08.02-.16.03-.24.04-.19-.17-.66-.47-.72-.58-.07-.11-.23.01-.14.1.09.09.41.36.53.49-.07 0-.19 0-.33.01l-.03-.03c-.15-.13-.37-.37-.5-.5-.12-.13-.25.02-.13.1s.29.36.33.42v.02c-.04 0-.07.01-.11.01a.346.346 0 0 1-.16-.08 7.73 7.73 0 0 0-.53-.44c-.12-.08-.28-.03-.22.04.06.07.46.32.51.44.02.04 0 .07-.03.08-.02 0-.05 0-.07.01-.06 0-.14-.03-.2-.09-.15-.12-.37-.37-.49-.42-.11-.06-.16.08-.07.19.1.11.28.18.34.32.01.03.01.06 0 .08h-.01c-.07.02-.13.04-.19.06-.03-.01-.06-.03-.09-.05-.15-.13-.26-.31-.4-.39-.14-.08-.29-.05-.19.06.1.11.46.28.47.38.01.04-.01.09-.03.11-.01.01-.03.02-.04.02-.03 0-.06 0-.09-.03-.09-.08-.09-.06-.23-.14-.14-.07-.11.23.03.33.01.01.02.01.02.02-.07.05-.14.11-.21.17-.16-.15-.54-.39-.54-.39s-.26-.05-.12.05c.15.1.39.34.31.43-.09.09-.37-.11-.52-.19-.14-.08-.23-.01-.14.08s.5.22.55.36c.05.14-.03.23-.22.17-.19-.07-.41-.15-.58-.25-.17-.1-.14.1-.05.16.09.06.55.38.45.5-.11.12-.63-.12-.78-.22-.14-.1-.27.03-.16.11.11.08.68.39.57.51-.11.12-.62-.22-.74-.33-.12-.11-.21-.02-.11.09.09.11.68.39.57.51-.11.12-.79-.27-.96-.36-.17-.1-.26.1-.1.17.17.07 1 .48.8.67-.2.19-.79-.29-1.04-.43-.25-.13-.35.01-.18.13.17.12.58.36.69.46.12.11.15.25-.08.14-.22-.11-1.04-.58-1.22-.57-.18 0-.21.14-.01.23.2.09.81.29.94.42.02.02.02.04.02.05l-.18.04c-.04-.01-.09-.02-.13-.04-.19-.07-.68-.39-.8-.37-.12.02-.31 0-.08.14.23.14.73.25.56.31-.17.06-.51.04-.8.04-.22 0-1.54.92-2.28 1.56-.72.19-1.21-.95-.31-2.69.01-.08.71-1.25.74-1.3.5-1.07 1.35-1.92 2.19-2.67 1.67-1.5 2.39-2.66 3.08-4.17.03-.07.07-.09.09-.1.02 0 .27.34.3.41-.04.03.19.48.11.55-.08.07-.17-.04-.31-.1-.1-.01-.15.17-.01.27zm12.7 30.18c-.05.06-.11.11-.18.16-3.11 2.15-7.13 1.93-7.36 1.87-.22-.06-1.59-.03-1.71-.02-.13.01-.19.13-.27.15-.08.02-.31.09-.01.13.3.04 1.72-.05 1.84-.05 2.52.1 4.44-.43 4.89-.56.33-.09 1.59-.64 2.35-1.19-.44.55-2.73 2.93-10.45 2.22-.72-.22-.87-.76-.93-.94-.05-.18-1.1-.65-1.33-.67-.24-.03-.2-.22-.02-.28.18-.05-.17-.22-.38-.31-.87-.35-.43-.93-.18-.84.25.1 1.15.41 1.46.45.31.04.09-.16-.04-.21-.13-.05-.85-.25-1.05-.35-.81-.41.05-.9.36-.86.12.02.97.22 1.27.31.3.09.15-.07-.12-.17-.27-.09-.4-.14-.72-.25-.32-.11 0-.14.09-.15.09-.02.68.16.63.05-.07-.15-.5-.26-.92-.44-.47-.19-2.08-1.99.39-1.32.23.07.28-.24.18-.29-.1-.05-1.41-.59-1.63-.65-.64-.18-.67-.87-.54-.82.12.05 1.26.5 1.42.5.16 0 .17-.24.02-.31-.15-.07-1.12-.43-1.29-.47-.17-.04-.39-.16-.34-.26.04-.07-.05-.08-.16-.15l-.09-.32c.08-.02.18-.02.32.03.32.11.16-.14.06-.21-.07-.05-.22-.14-.36-.25.01 0 .02-.01.03-.01.5.05 1.74.37 2.63.78.13.06.23.01.28-.07.04-.08.02-.19-.11-.27-.93-.53-2.25-1.03-2.92-1.16-.14-.03-.21-.21-.25-.37.04.01.07.01.11.02.18.01.06-.11-.14-.17l-.07-.33c0-.02-.01-.05-.02-.07.09.01.19.03.25.02.18-.01.08-.06-.12-.16-.07-.03-.13-.07-.18-.1l-.06-.27c.09.01.21.04.37.02.24-.02.1-.18-.07-.24-.12-.04-.24-.06-.37-.09-.04-.17-.08-.34-.13-.51.05-.01.11-.01.19-.01.21.01.31-.05.28-.11-.06-.16-.42-.13-.54-.14h-.01c-.07-.23-.15-.47-.23-.71.05-.02.11-.03.15-.03.1.01.12-.32-.25-.26-.19-.51-.07-.91.39-1.27.25-.2.85-.41 1.08-.39.06 0 .1.01.14.04.02.02.08.07.1.09.03.04.05.09.07.16.17.65.55 1.38.97 1.85.4.45.63.84.75 1.28.07.24.2.24.23.23.04-.01.16-.05.14-.3-.03-.46-.28-1.07-.63-1.55-.38-.5-.69-1.15-.77-1.62-.08-.46-.02-.84.11-1.31.24-.87.89-1.67 1.42-2.08.64-.49.99-1.3.93-2.17-.01-.08.04-.13.08-.14.06-.01.06.02.1.11.47.97.95 1.77 1.63 2.2.83.53 1.39 1.16 1.39 1.85 0 .59-.21 1.16-.82 1.55-2.09 1.36-1.7 3.16-1.01 4.44.36.66.6.99.84 1.31l.03.04c.22.3.25.65.09.98-.54 1.09-.52 2.23.06 3.04.36.5.65 1 .79 1.34.04.1.09.16.14.19-.04 0-.08 0-.12.02-.15.06-.77-.02-.86-.04-.16-.04-.32.06-.22.12.09.07 1.02.16 1.16.12.14-.04.22-.14.21-.18 0-.01-.01-.01-.02-.01h.02c.08-.03.14-.13.09-.31-.14-.49-.43-1.01-.64-1.39l-.07-.12c-.3-.56-.22-1.58-.03-2.04l.27-.59.11-.25c.04-.09.1-.16.17-.17.04-.01.08.01.12.06.36.39.65 1.03.84 1.45l.04.08c.21.45.54.65.86.8.57.27 1.3.72 1.51 1.35.06.16.16.2.23.18.1-.02.15-.13.12-.25-.17-.79-.72-1.17-1.4-1.65l-.08-.05c-.43-.3-.59-.44-.74-.82l-.17-.44c-.25-.67-.46-1.25-1.03-1.58l-.34-.18c-.24-.12-.42-.21-.58-.41-.71-.89-1.08-1.79-1.03-2.53.05-.66.51-1.32 1.28-1.81.86-.55 1.35-1.4 1.3-2.27 0-.07.02-.12.06-.16.06-.05.17-.07.27-.05 1.12.26 1.8.97 2 2.12.03.18.14.24.24.22.1-.02.2-.12.18-.29-.07-.6-.22-2.02-1.73-2.64-.16-.11-.29-.16-.38-.15h-.08c-.03-.01-.3-.07-.3-.07l-.11-.02c-.21-.03-.39-.06-.52-.28-.4-.73-.99-1.15-1.46-1.43-.51-.31-.9-.93-1.25-1.55-.36-.63-.71-1.16-1.49-1.23-.86-.06-1.57-.33-2.16-.76a.491.491 0 0 1-.11-.15c-.04-.15.14-.13.31-.21.18-.08.84.33 1.1.26.26-.06.81-.05 1.15.2.23.17.66.35.96.45.35.34.64.68.89 1.02.1.14.19.26.2.33.03.19.37.53.6 1.01.24.49 1.23.78 1.38.82.15.04.24.25.39.22.16-.03-.02-.19-.03-.25-.02-.06.09-.03.2.01.1.05.21.19.23.12.02-.07.05-.07.19-.02.14.06.15.15.24.17.08.02.06-.04-.02-.14s.03-.2.13-.14c.11.06.34.36.48.35.14-.01-.02-.17-.05-.3-.04-.12.12-.12.21 0 .08.11.38.42.58.43.19.02-.04-.22-.03-.35.01-.13.1-.05.21.07.1.13.6.85.72.79.09-.05.49.62.72 1.16.41 1.22.39 2.19-.12 2.94-.57.84-.75 1.86-.51 2.87.07.29.08.51.1.74.02.22.03.44.1.72.13.58.5 1.21 1.06 1.81.37.39.49.71.6 1.17.1.44.26.94.65 1.37.08.09.2.1.28.04.06-.05.09-.17.01-.29-.01-.02-.34-.46-.41-1.24-.06-.67-.36-1.14-.6-1.42-.19-.22-.38-.46-.55-.92-.03-.09-.03-.16.01-.19s.15-.03.26.05c.56.4 1.91 1.52 2.34 3.2.05.18.15.23.23.22.02 0 .04-.02.05-.04.02.05.04.11.05.14.08.23.11.9.09 1.2-.03.29-.5 1.3-.62 1.48-.03.12-.12.23-.21.34zm-18.48-3.04a.688.688 0 0 1-.45-.36c-.03-.07.1-.3.6-.13.17.06.83.32 1.21.41l.25.07.17.05c.15.05 1.15.4 1.23.43.25.11 1.08.39 1.3.45.08.02.09.23.05.34-.12.41-4.18-1.22-4.36-1.26zm3.16 3.75c-.11-.03-1.81-.73-1.96-.85-.16-.12-.06-.52.25-.4.12.04 1.73.68 1.88.74.78.31.69.77-.17.51zm-4.44-6.96c.06.35.29 1.49.55 2.24.04.1.02.16 0 .17-.02.01-.06-.02-.11-.1-.27-.47-.55-1.32-.68-1.93-.11-.48-.19-.67-.42-1.15-.15-.3-.38-.71-.65-1.17-.1-.16-.48-.67-.5-.83-.03-.16-.34-.7-.43-.79-.09-.1-.24-.48-.26-.62-.03-.14.3.06.37.17v.01c.09.12.44.66.4.61.22.35.45.69.65 1l.01.02c.19.29.42 1.07 1.22 1.36.12.04.9.56 1.03.67.13.12.51.63.76.77.14.08.22.16.27.17.36.47.54.69.9.8.08.03.06.21.07.25v.02c-.01.04-.07.07-.15.05-.57-.1-.97-.45-1.2-.74-.43-.52-.93-.97-1.38-1.23-.19-.1-.32-.13-.4-.08-.06.07-.09.17-.05.33zm10.21-14.73c-.18-.22.14-.03.16-.15v-.02c.84.11 1.71.45 2.55 1.01 1.07.71 1.96 1.7 2.51 2.71-.42-.14-.85-.21-1.18-.23l-.07-.01c-1-.05-1.75.05-2.33-.7l-.18-.25c-.26-.36-.69-.94-1.28-1.54-.29-.33-.59-.67-.66-.77-.14-.17.1-.18.2-.06.1.11.41.39.51.33.09-.04-.04-.1-.23-.32zm-5.67 15.75c-.01.03-.05.08-.16.08-.14 0-1.34-.4-1.55-.46l-.09-.03-.07-.02c-.08-.01-.16-.02-.19-.16 0-.05-.02-.23.02-.24.09-.04 1.34.41 1.49.43.17.02.33.03.4.08.03.02.05.07.08.12l.06.18c.01 0 .02.01.01.02zm.25 1.44c.01.03 0 .09-.04.13-.03.04-.07.06-.11.06-.08.01-.79-.23-.94-.32l-.16-.09c-.08-.04-.1-.1-.1-.13 0-.04.02-.07.06-.09a.23.23 0 0 1 .22.03c.03.02.12.06.21.09.22.09.85.28.86.32zm-1.39-5.18c.06.02.09.06.11.11.04.14.09.29.13.44 0 .03.01.06 0 .11-.02.1-.2.09-.24.06 0 0-2.21-.88-2.41-.93-.32-.09-.68-.16-.69-.28-.01-.1.12-.61.95-.25.16.08 2.15.74 2.15.74zm-1.76.36.33.14c.24.11 1.1.42 1.2.45l.08.02c.08.01.19.03.38.13.22.11.21.4.21.43.02.09 0 .17-.06.21-.07.04-2.52-.88-2.64-.97-.03-.03-1.15-.49-1.3-.61-.04-.04.07-.21.09-.24.05-.06.14-.1.23-.04.1.06 1.28.4 1.48.48zm-.96-7.19c-.29.01-2.01-.83-2.11-.95-.04-.05-.1-.15-.09-.17.02-.04.09-.22.15-.22s.22.03.24.08c.07.08 1.2.55 1.81.8.1.04.3.13.3.18 0 .16-.14.27-.3.28zm.23.61c0 .06-.09.39-.15.43-.1.06-1.27-.43-1.53-.5-.26-.06-1-.39-1.19-.48-.08-.04-.11-.15-.11-.18.01-.07.12-.35.2-.37.04-.01.21 0 .25.05.06.06.93.43 1.17.49.14.03.43.15.71.26.22.1.44.18.53.21.1.02.12.06.12.09zm-.02-1.64c-.27-.01-1.01-.38-1.43-.61l-.26-.14c-.09-.04-.01-.17-.01-.2s.03-.06.07-.08c.05-.02.13-.01.18.05.06.07 1.37.66 1.58.71.19.05.18.1.17.12 0 .05-.06.16-.3.15zm-1.04-1.45c-.01-.05.02-.1.07-.14.05-.04.13-.06.2-.03.16.08.97.51 1.1.6.06.04.09.1.06.16-.03.07-.14.11-.29.06-.14-.05-.41-.2-.65-.34-.18-.1-.35-.2-.42-.22a.096.096 0 0 1-.07-.09zm-2.51 3.06c.07-.12.31-.12.38-.04.07.08 2.87 1.15 3.12 1.2.1.02.13.06.14.09.01.04-.01.55-.05.59-.06.06-.17.11-.28.09-.22-.05-3.18-1.32-3.33-1.45-.03-.03-.08-.08-.07-.12.02-.01.07-.32.09-.36zm4.62 1.55a.49.49 0 0 1-.23-.17v-.23c.06-.09.19-.17.4-.16.21.01.31-.09.25-.18-.06-.08-.29-.05-.46-.14-.07-.03-.13-.11-.19-.2-.01-.14-.01-.27-.02-.41-.01-.09.01-.18.01-.27.08-.06.2-.1.38-.07.15.02.23-.15.01-.21-.21-.05-.23-.07-.35-.11.03-.15.08-.3.14-.42.06-.12.11-.22.16-.33.12.03.23.08.36.12.17.06.2-.08.04-.17-.11-.06-.19-.12-.29-.17.05-.1.08-.2.12-.3.13.02.32.13.49.18.23.08.26-.17.02-.29-.08-.04-.27-.1-.41-.16.06-.18.09-.36.11-.54.19.03.47.11.47.11s.23-.23 0-.3c-.11-.03-.16.01-.47-.13 0-.03.01-.07 0-.1 0 0-.01-.24-.02-.38.04-.02.07-.03.1-.02.11.02.61.19.91.13.31-.06.22-.26 0-.34-.23-.08-.83-.21-1.03-.31-.01-.01-.01-.03-.01-.04l-.01-.19c.07-.23.29-.54.47-.6.29-.09 1.03-.68 1.71.23.12.17.48.3.61.4.04.03.13.09.22.15.13.11.27.22.41.31.04.04.08.08.1.11.04.08.13.11.23.11.27.15.56.29.88.42.42.16.56.32.5.79l-.01.05c-.06.43-.09.84-.51 1.23-.81.73-1.32 1.49-1.57 2.31-.08.25-.26.54-.65.63-.86.22-1.48.71-1.81 1.29-.05-.07-.12-.11-.15-.13-.05-.04-.01-.21-.09-.27-.08-.05-.96-.3-1.31-.42.06-.15.11-.31.14-.47.11-.03.25-.03.4.01.24.06.53.12.55-.06.05-.1-.15-.12-.6-.29zm-.73 1.85c.2.01.62.19.96.27.19.04.33.14.41.17.09.03.14.06.15.1.01.03 0 .06-.02.07-.04.04-.15.05-.26.02l-.29-.08c-.35-.09-.84-.21-1.02-.31-.14-.08-.15-.15-.14-.2.01-.07.06-.05.21-.04zm1.26.07c-.17-.04-.5-.16-.76-.27a3.03 3.03 0 0 0-.33-.12c-.08-.03-.13-.09-.13-.14-.01-.04 0-.07.03-.1.03-.02.08-.03.17.01.16.08 1 .36 1.24.43.13.04.14.08.13.12-.02.09-.18.12-.35.07zm-5.14-2.33c.05.03.23.09.38.15.11.04.2.08.24.09.07.03 1.45.55 1.93.74l.34.13c.07.03.12.1.13.15 0 .02-.02.18-.04.2-.02.02.04.22-.49.06-.71-.21-2.87-.75-2.75-1.37.01-.04.21-.18.26-.15zm.2 1.36c1.14.28 2.18.79 2.86 1.04.54.2.18.35.33.43.18.1.55.25 1.09.44.49.17.96.33 1.08.4.03.02.05.04.07.07l.06.16c.01.06.02.11.01.14 0 .05-.03.08-.07.1-.05.02-.11 0-.16-.05-.08-.08-.72-.29-1.34-.51-.6-.21-1.22-.42-1.41-.53-.22-.12-.56-.22-.85-.31-.25-.08-.48-.15-.62-.23-.42-.23-.93-.32-1.35-.57-.07-.04.03-.65.3-.58zm-.29 1.36c.02-.07.04-.2.24-.11.08.04 2.79 1.06 2.91 1.1.02.01.06.2.05.22-.02.06-.16.1-.25.07l-1.87-.66c-.51-.15-1-.31-1.08-.45-.03-.08-.01-.13 0-.17zm.94.91c.09-.02.96.33 1.15.41.22.09.35.15.39.19.05.04.06.12.05.16-.01.04-.04.16-.07.17-.02.01-.07.01-.12-.05-.12-.12-1.51-.58-1.53-.67-.01-.05.04-.19.13-.21zm1.45 2.06c.02-.02.08-.03.14.02.04.03.17.08.32.13.23.08.98.41 1.24.48.24.07 2.25.86 2.34.88.15.04.3.07.37.15.01.05.03.1.05.15 0 .03 0 .06-.01.07-.02.11.1.3-.07.31-.24.02-1.54-.47-1.71-.57-.06-.03-.25-.12-.48-.22-.53-.23-1-.42-1.11-.46-.56-.22-1.28-.26-1.22-.69.03-.05.1-.22.14-.25zm1.29-11.58c.26-.09.56-.21.82-.47.25-.25.55-.48.88-.67l-.02.01.05-.03c.55-.31 1.2-.53 1.9-.63.01 0 .41-.09.41-.09.19-.02.53-.02 1.02.02l.56.05.45.05c.07.01.22.05.43.12.48.12.91.29 1.31.49.06.03.24.11.27.13l.02.02-.01-.01.03.02c.35.21.67.44.93.69.73.68 1.22 1.36 1.52 1.77l.19.25c.03.03.05.06.08.09.61.72 1.38.82 2.39.88h.07c.41.03.91.06 1.41.27.02.01.03.01.05.02.01 0 .09.04.09.04l.03.02c.4.2.74.52 1.03.93.14.19.26.41.37.65.09.2.18.4.26.63.26.79.4 1.54.4 2.18 0 .58-.11 1.09-.33 1.47-.05.08-.08.15-.13.23-.31.57-.5 1.05-.5 1.57 0 .17.02.35.06.53.17.84.77 1.34 1.24 1.73l.05.04c.05.04.09.09.14.13 1.07.95 1.87 2.35 1.97 3.48v.05c-.01-.01-.01-.03-.02-.05l-.06-.18c-.26-.87-.74-1.57-1.23-2.11a6.84 6.84 0 0 0-1.13-1.01c-.17-.12-.35-.14-.47-.05-.04.03-.1.1-.1.22 0 .05.01.11.03.17.17.48.38.74.58.97.23.26.5.69.56 1.31.06.66.31 1.15.44 1.33.02.02.02.03.02.04-.01 0-.02 0-.03-.02-.36-.4-.51-.88-.61-1.29-.11-.49-.25-.83-.64-1.26-.54-.58-.89-1.18-1.01-1.73-.06-.27-.08-.49-.09-.7-.02-.23-.03-.46-.11-.77a3.423 3.423 0 0 1 .48-2.73c.3-.44.45-.95.45-1.53 0-.22-.04-.46-.08-.71a5.97 5.97 0 0 0-.3-1.11c-.61-1.58-1.44-2.22-2.88-2.22-1.1 0-2.21-.14-2.97-1.23-.29-.41-.59-.83-.96-1.25-.05-.06-.1-.12-.16-.18a7.47 7.47 0 0 0-.49-.48c-.14-.12-.28-.23-.43-.34-.13-.1-.27-.18-.42-.27-.79-.45-1.72-.67-3.04-.74a.443.443 0 0 0-.2.03c-.07.03-.12.07-.15.13-.01.01-.01.03-.01.04-.01.04-.03.07-.03.11 0 .07.02.14.07.21.34.46.78.83 1.29 1.1.51.27 1.11.43 1.76.48.69.06 1.02.55 1.35 1.14.36.65.77 1.29 1.32 1.62.48.29 1.03.67 1.4 1.36.16.3.42.34.65.37l.1.02.32.07h.11c.02 0 .1.01.29.13 1.26.52 1.54 1.56 1.64 2.5v.02c0 .05-.02.07-.03.07 0 0-.02-.02-.04-.08-.27-1.53-1.31-2.07-2.14-2.26a.49.49 0 0 0-.43.08c-.08.07-.12.17-.12.28v.13c0 .77-.45 1.52-1.22 2.01-.81.52-1.31 1.23-1.36 1.95v.15c0 .75.38 1.63 1.07 2.5.19.24.4.34.64.46l.33.17c.51.29.72.85.95 1.48l.17.45c.17.42.36.59.81.9l.08.05c.68.48 1.18.82 1.33 1.54v.01c0-.01-.01-.01-.01-.03-.22-.7-.99-1.18-1.6-1.46-.27-.13-.58-.3-.78-.71l-.04-.08c-.2-.43-.5-1.08-.88-1.5a.304.304 0 0 0-.29-.11c-.13.02-.24.12-.3.28l-.11.24-.27.6c-.11.26-.19.68-.19 1.11 0 .39.06.79.22 1.08l.07.13c.21.37.49.88.62 1.35.01.03.01.05.01.07-.01-.02-.03-.05-.05-.09-.14-.35-.45-.86-.81-1.37-.28-.39-.42-.86-.42-1.37 0-.48.12-.99.37-1.49.08-.17.12-.34.12-.51 0-.23-.08-.46-.23-.66l-.03-.04c-.23-.32-.47-.64-.83-1.29-.66-1.21-1.02-2.92.95-4.2.67-.43 1.03-1.03 1.03-1.68 0-.76-.49-1.49-1.38-2.05-.66-.42-1.27-1.16-1.72-2.1-.1-.2-.25-.24-.37-.21-.13.04-.21.16-.21.3v.03c0 .06.01.13.01.19 0 .73-.31 1.41-.86 1.82-.56.43-1.23 1.26-1.48 2.18-.09.34-.15.64-.15.95 0 .14.01.29.04.44.09.49.41 1.18.8 1.7.34.45.57 1.02.6 1.46v.07c-.01-.02-.02-.04-.02-.06-.13-.46-.37-.88-.79-1.35-.4-.45-.78-1.16-.93-1.78a.496.496 0 0 0-.1-.22v-.01l-.02-.01-.12-.11-.01-.01a.438.438 0 0 0-.23-.06c-.27-.01-.91.2-1.2.43-.19.15-.33.31-.42.48-.09.16-.13.32-.13.5 0 .11.02.22.05.33 0 .01.01.02.01.03.02.06.03.12.06.19.17.43.3.85.41 1.26.03.1.05.2.08.3.08.31.14.61.2.89l.03.13.04.19.05.22.01.03c.07.33.21.51.4.55.64.13 1.97.62 2.86 1.13.02.02.03.02.03.03-.01 0-.02 0-.03-.01-.95-.44-2.19-.75-2.69-.8a.256.256 0 0 0-.19.06c-.02.01-.04.02-.05.03-.05.05-.08.13-.08.21 0 .03 0 .06.01.08.26 1.06.89 2.82 1.49 3.94.01.02.01.03.01.04l-.02-.02c-.47-.62-1.01-1.75-1.46-3.01-.31-.86-.66-2.12-.84-2.92-.17-.73-.32-1.13-.63-1.92l-.14-.37a1.8 1.8 0 0 1-.12-.63c0-.19.05-.38.12-.56.02-.05.03-.11.06-.16.29-.57.95-1.03 1.8-1.24.46-.12.73-.51.82-.8.23-.79.73-1.51 1.52-2.22.47-.43.54-.93.59-1.37l.01-.05c.01-.08.01-.15.01-.22 0-.41-.19-.67-.62-.83-.24-.09-.45-.19-.66-.28-.83-.39-1.47-.86-2.01-1.72-.15-.23-.35-.47-.73-.4-.47.08-1.04.42-1.32.69-.2.2-.29.43-.29.7 0 .05 0 .09.01.14l.04.69.01.25.01.18v.18c0 .1-.01.2-.03.29a2.7 2.7 0 0 1-.08.39c-.04.15-.1.32-.17.48-.02.04-.03.07-.04.11-.06.12-.12.25-.19.39l-.06.12-.03.06a2.16 2.16 0 0 0-.22 1.17c.02.27.03.54.03.8 0 .4-.04.78-.13 1.14-.02.09-.06.18-.09.26-.11.3-.26.57-.5.8-.02.02-.02.01-.03.02 0-.01 0-.01.01-.02.36-.63.46-1.28.46-1.88 0-.4-.04-.79-.08-1.13l-.02-.18c-.01-.08-.01-.16-.01-.24 0-.33.06-.68.17-.96l.12-.29c.1-.23.2-.48.27-.72.05-.16.07-.35.07-.56 0-.27-.03-.57-.06-.92-.02-.2-.11-.37-.24-.46a.51.51 0 0 0-.46-.05c-1.5.45-2.88 1.47-3.73 2.74.45-1 1.15-1.72 1.89-2.24.21-.15.42-.28.63-.4.33-.17.72-.34 1.08-.47zm-3.9 11.79c.02-.04 0-.46.11-.46.12 0 1.11.49 1.21.57.23.18.34.78.35.79.08.08-.69-.23-.83-.27-.28-.09-.75-.27-.8-.34-.05-.08-.07-.25-.04-.29zm.12 1.41c.02-.06.03-.34.09-.34.03 0 1.51.44 1.55.46.3.14.29.72.29.72a.11.11 0 0 1-.1.06c-.08.01-1.23-.4-1.34-.43-.11-.02-.35-.08-.41-.13-.04-.04-.11-.28-.08-.34zm.4 1.19c.15-.03 1.37.42 1.65.48.48.11.47.84.22.8-.34-.06-1.39-.46-1.58-.51-.14-.04-.46-.73-.29-.77zm3.02.71c.04-.04.19.01 1.16.38.28.11.55.21.61.23.14.03.91.3.94.43.01.05.03.11 0 .16-.02.04-.1.17-.15.18-.09.02-.77-.24-.77-.24-.46-.19-1.35-.49-1.49-.52-.23-.05-.31-.33-.3-.45 0-.04 0-.08-.01-.12-.01-.02 0-.04.01-.05zm16.57-3.9c-.04-.17-.05-.33-.05-.49 0-.4.12-.78.32-1.2.03 1.17.34 2.23.81 3.23-.44-.36-.93-.82-1.08-1.54zm.21-8.19c.3.22.56.8.57 1.01 0 .05 0 .09.01.14-.11-.06-.21-.12-.31-.17-.09-.29-.56-.85-.66-.93-.12-.1.08-.28.39-.05zm-.35-3.73c-.24 0-.44.22-.38.41.07.19.03.59.01.75-.02.16.2.48.3.54.1.06.2.43.08.48-.12.05-.28.08-.22.24.06.16-.07.39-.13.29-.06-.1-.1-.22-.17-.42-.07-.21-.22-.27-.15-.07.07.21.09.34.16.54.07.21-.1.3-.16.05s-.27-.48-.31-.68c-.03-.2-.16-.13-.11.07.05.19-.1.3-.18.05-.08-.25-.33-.99-.4-1.19-.07-.21-.23-.18-.19-.08.05.1.07.3.08.39.02.09-.14.24-.17.05-.04-.2-.16-.44-.19-.59-.03-.15-.32-.33-.24-.14.08.19.05.3.06.52.01.22-.13.05-.16-.05s-.12-.29-.15-.43c-.04-.13-.19-.26-.17-.14.02.12.04.24-.05.21-.1-.03-.12-.21-.15-.33-.04-.12-.17-.47-.24-.64-.06-.18-.26-.22-.19-.11s.09.42.13.57c.04.15-.2.08-.24-.02-.03-.1-.28-.62-.35-.75-.07-.13-.21-.04-.13.07.08.11.16.36.2.51.05.15-.2-.09-.26-.16s-.24-.39-.3-.54c-.06-.14-.26-.12-.17 0 .08.13.06.16.12.34.06.18-.22-.02-.27-.09-.04-.07-.29-.53-.33-.64-.03-.12-.23-.01-.13.13s.06.25.11.37-.29-.09-.33-.19c-.05-.1-.27-.46-.39-.68-.12-.23-.15.01-.1.11.05.1.16.28.18.44.03.15-.13.07-.17 0-.04-.07-.17-.38-.22-.47-.05-.1-.33-.19-.14.16.19.36.05.3-.05.3-.11 0-.24-.13-.24-.13s-.09-.24-.14-.4c-.04-.17-.17-.1-.13-.02.05.07.01.21.03.36.03.15-.16.05-.18-.03-.01-.08-.15-.33-.2-.39-.04-.06-.18-.06-.12.01.06.07.07.17.08.31.01.14-.02.14-.08.08-.06-.07-.2-.18-.31-.34-.1-.15-.3.08-.39.1-.09.01-.35-.3-.41-.35-.06-.05-.16 0-.11.08.05.09.22.23.17.33-.04.1.02.29-.15.31-.17.01-.37-.31-.55-.32-.18-.01-.4.01-.48.13-.03-.01-.05-.02-.07-.02-.15-.05-.36-.11-.46-.12 0 0-.15-.02-.28-.03a2 2 0 0 0-.16-.06c-.12-.03-.11-.08-.06-.18 3.27-1.57 7.97-1.69 11.87 1.46l-.12.03c-.1-.07-.37-.09-.48-.1-.11-.01-.53.12-.77.11zm-6.12-2.98c-.55.02-2.14.22-2.67.32-.04-.2.11-1.22.32-1.3.21-.01 1.47-.21 1.66-.21.37-.01.58-.08.87-.07-.06.46-.12.89-.18 1.26zM17.14 36.71c-.03-.04-.06-.07-.09-.11 1.45 1.76 3.31 3.17 5.53 3.95h-.01c.24.94.51 2.32.71 3.43-2.1-.22-4.09-.81-5.93-1.67-.04-1.81-.12-4.01-.21-5.6zm.37-27.74c-.19.63-.29 1.21-.27 2.02.02.82.01 2.05-.03 3.17-.03 1.05-.17 2.89-.14 4.49-.21.11-.42.24-.63.39-.11-1.61.05-3.54-.27-5.32-.16-.89-1.03-.88-1.3-.05-.09.27-.15.44-.24.68-.13.33-.32.48-.71.54-.47.08-1.02.23-1.36.38-.18.08-.28.27-.25.54.07.67.16 2.27.27 4.38-.24.08-.46.21-.64.41-.41.47-.55 1.11-.28 1.99.39 1.26.31 1.89 0 2.68-.62 1.56-.27 3.77.97 5.32.02.03.05.06.07.08.11.12.23.19.35.22 0 0-.01-.01-.02-.01.13 3.43.25 6.69.31 8.9-4.11-3.42-6.73-8.57-6.73-14.32 0-7.54 4.52-14.04 10.98-16.96 0 .16-.03.31-.08.47z"/></g><path fill="#FFF" d="M57.15 14.06h4.7l1.01 2.4h1.85L60.32 6.45H58.7l-4.37 10.01h1.79l1.03-2.4zm2.34-5.52 1.72 3.97h-3.42l1.7-3.97zM68.26 9.36l3.11 4.66h.05l3.14-4.69v7.13h1.75V6.52h-1.86l-3.03 4.7-3.02-4.7h-1.86v9.94h1.72zM86.44 14.9h-5.69v-2.67h4.98v-1.56h-4.98V8.09h5.62V6.52H79v9.94h7.44zM90.4 13h2.19l2.44 3.46h2.07l-2.68-3.76c1.38-.4 2.36-1.38 2.36-3.01v-.03c0-.87-.3-1.6-.82-2.14-.64-.62-1.62-.99-2.87-.99h-4.43v9.94h1.75V13zm0-4.89h2.54c1.29 0 2.06.59 2.06 1.65v.03c0 1.01-.79 1.66-2.04 1.66H90.4V8.11zM99.16 6.52h1.75v9.94h-1.75zM108.32 16.63c1.86 0 2.99-.68 4.03-1.76l-1.12-1.14c-.85.79-1.63 1.28-2.85 1.28-1.9 0-3.28-1.58-3.28-3.52v-.03c0-1.94 1.39-3.51 3.28-3.51 1.14 0 1.99.5 2.78 1.23l1.12-1.29c-.95-.91-2.06-1.55-3.89-1.55-3.01 0-5.12 2.31-5.12 5.14v.03c-.01 2.86 2.15 5.12 5.05 5.12zM116.28 14.06h4.7l1.01 2.4h1.85l-4.37-10.01h-1.62l-4.37 10.01h1.79l1.01-2.4zm2.34-5.52 1.72 3.97h-3.42l1.7-3.97zM127.39 9.39l5.48 7.07h1.46V6.52h-1.71v6.87l-5.33-6.87h-1.61v9.94h1.71zM62.71 27.93c-.85.79-1.63 1.28-2.85 1.28-1.9 0-3.28-1.58-3.28-3.52v-.03c0-1.94 1.39-3.51 3.28-3.51 1.14 0 1.99.5 2.78 1.23l1.12-1.29c-.95-.91-2.06-1.55-3.89-1.55-3.01 0-5.12 2.31-5.12 5.14v.03c0 2.85 2.16 5.11 5.05 5.11 1.86 0 2.99-.68 4.03-1.76l-1.12-1.13zM70.26 30.82c3.05 0 5.21-2.34 5.21-5.14v-.03c0-2.8-2.13-5.11-5.18-5.11s-5.21 2.34-5.21 5.14v.03c0 2.8 2.13 5.11 5.18 5.11zm-3.35-5.16c0-1.93 1.38-3.51 3.35-3.51 1.97 0 3.38 1.6 3.38 3.53v.03c0 1.93-1.38 3.49-3.35 3.49-1.97 0-3.38-1.59-3.38-3.52v-.02zM84.7 29.06h-5.23v-8.34h-1.74v9.93h6.97zM93.62 29.06H88.4v-8.34h-1.75v9.93h6.97zM102.95 22.28v-1.56h-7.37v9.93h7.44v-1.56h-5.69v-2.67h4.98v-1.56h-4.98v-2.58zM114.09 25.1h-4.23v1.52h2.54v1.86c-.61.45-1.46.75-2.4.75-2.03 0-3.38-1.5-3.38-3.55v-.03c0-1.9 1.39-3.51 3.22-3.51 1.26 0 2.02.41 2.78 1.06l1.11-1.32c-1.02-.87-2.09-1.35-3.82-1.35-2.99 0-5.12 2.36-5.12 5.14v.03c0 2.9 2.04 5.11 5.15 5.11 1.76 0 3.16-.71 4.14-1.55V25.1zM123.87 22.28v-1.56h-7.36v9.93h7.43v-1.56h-5.69v-2.67h4.98v-1.56h-4.98v-2.58zM129.95 26.92v.03c0 2.13 1.69 3.87 3.97 3.87 2.31 0 4.02-1.77 4.02-3.9v-.03c0-2.14-1.69-3.89-3.99-3.89-2.3 0-4 1.78-4 3.92zm6.27 0v.03c0 1.29-.88 2.37-2.27 2.37-1.33 0-2.28-1.09-2.28-2.4v-.03c0-1.31.88-2.38 2.26-2.38 1.34 0 2.29 1.09 2.29 2.41zM140.21 30.65h1.72v-6.02h1.96v-1.42h-1.99v-.41c0-.78.34-1.14.99-1.14.37 0 .67.07 1.01.18v-1.45c-.38-.11-.8-.2-1.39-.2-.74 0-1.29.2-1.69.6-.4.4-.61 1.02-.61 1.85v.55h-.95v1.43h.95v6.03zM59.86 36.35c1.14 0 1.99.5 2.78 1.23l1.12-1.29c-.95-.91-2.06-1.55-3.89-1.55-3.01 0-5.12 2.31-5.12 5.14v.03c0 2.85 2.16 5.11 5.05 5.11 1.86 0 2.99-.68 4.03-1.76l-1.12-1.14c-.85.79-1.63 1.28-2.85 1.28-1.9 0-3.28-1.58-3.28-3.52v-.03c0-1.94 1.39-3.5 3.28-3.5zM67.76 42.45h4.7l1.01 2.4h1.85l-4.37-10.01h-1.62l-4.37 10.01h1.79l1.01-2.4zm2.34-5.52 1.72 3.97H68.4l1.7-3.97zM78.91 41.39h2.19l2.44 3.46h2.07l-2.68-3.76c1.38-.4 2.36-1.38 2.36-3.01v-.03c0-.87-.3-1.6-.82-2.14-.64-.62-1.62-.99-2.87-.99h-4.43v9.94h1.75v-3.47zm0-4.89h2.54c1.29 0 2.06.58 2.06 1.65v.03c0 1.01-.79 1.66-2.04 1.66h-2.55V36.5zM91.27 34.91h-3.7v9.94h3.7c3.12 0 5.28-2.17 5.28-4.97v-.03c0-2.79-2.16-4.94-5.28-4.94zm3.45 5c0 1.94-1.36 3.35-3.45 3.35h-1.96V36.5h1.96c2.09 0 3.45 1.43 3.45 3.38v.03zM98.91 34.91h1.75v9.94h-1.75zM103.01 39.88v.03c0 2.8 2.13 5.11 5.18 5.11s5.21-2.34 5.21-5.14v-.03c0-2.8-2.13-5.11-5.18-5.11-3.06 0-5.21 2.34-5.21 5.14zm8.56 0v.03c0 1.93-1.38 3.49-3.35 3.49-1.97 0-3.38-1.59-3.38-3.52v-.03c0-1.93 1.38-3.51 3.35-3.51 1.97.01 3.38 1.61 3.38 3.54zM115.65 34.91v9.94h6.97v-1.59h-5.22v-8.35zM123.57 39.91c0 2.8 2.13 5.11 5.18 5.11s5.21-2.34 5.21-5.14v-.03c0-2.8-2.13-5.11-5.18-5.11s-5.21 2.34-5.21 5.14v.03zm1.84-.06c0-1.93 1.38-3.51 3.35-3.51 1.97 0 3.38 1.6 3.38 3.53v.03c0 1.93-1.38 3.49-3.35 3.49-1.97 0-3.38-1.59-3.38-3.52v-.02zM140.83 36.35c1.26 0 2.02.41 2.78 1.06l1.11-1.32c-1.02-.87-2.09-1.35-3.82-1.35-2.99 0-5.12 2.36-5.12 5.14v.03c0 2.9 2.04 5.11 5.15 5.11 1.76 0 3.16-.71 4.14-1.55V39.3h-4.23v1.52h2.54v1.86c-.61.45-1.46.75-2.4.75-2.03 0-3.38-1.5-3.38-3.55v-.03c.01-1.9 1.4-3.5 3.23-3.5zM149.99 44.85h1.76v-3.96l3.95-5.98h-2.01l-2.81 4.39-2.76-4.39h-2.08l3.95 6.02zM156.73 42.61c0-.46-.35-.68-.82-.68h-.96v2.04h.5v-.64h.32l.44.64h.6l-.52-.73c.26-.09.44-.3.44-.63zm-.86.32h-.43v-.56h.43c.21 0 .35.1.35.28 0 .16-.12.28-.35.28z"/><path fill="#FFF" d="M155.76 41.02c-1.09 0-1.96.9-1.96 1.97V43c0 1.07.86 1.96 1.96 1.96 1.09 0 1.96-.9 1.96-1.97v-.01c0-1.07-.85-1.96-1.96-1.96zm1.74 1.97c0 .96-.76 1.76-1.74 1.76-.99 0-1.74-.79-1.74-1.75v-.01c0-.96.76-1.76 1.74-1.76.99 0 1.74.79 1.74 1.75v.01z"/></svg>